 http://www.hurjatmopoilija.com/
Visit there or be persereikä... or peräkärry!


General
Complete name                    : /media/truecrypt2/torrent_imut/Team Hurjat Mopoilija - Peräkärryjä ja Persereikiä vol. #1/hurjat.avi
Format                           : AVI
Format/Info                      : Audio Video Interleave
File size                        : 458 MiB
Duration                         : 29mn 5s
Overall bit rate                 : 2 202 Kbps

Video
ID                               : 0
Format                           : MPEG-4 Visual
Format settings, BVOP            : Yes
Format settings, QPel            : No
Format settings, GMC             : No warppoints
Format settings, Matrix          : Default (H.263)
Codec ID                         : DX50
Codec ID/Hint                    : DivX 5
Duration                         : 29mn 5s
Bit rate                         : 1 996 Kbps
Width                            : 640 pixels
Height                           : 480 pixels
Display aspect ratio             : 4:3
Frame rate                       : 30.000 fps
Resolution                       : 8 bits
Colorimetry                      : 4:2:0
Scan type                        : Progressive
Bits/(Pixel*Frame)               : 0.217
Stream size                      : 415 MiB (91%)
Writing library                  : DivX 6.8.5 (UTC 2009-08-20)

Audio
ID                               : 1
Format                           : MPEG Audio
Format version                   : Version 1
Format profile                   : Layer 3
Codec ID                         : 55
Codec ID/Hint                    : MP3
Duration                         : 29mn 5s
Bit rate mode                    : Constant
Bit rate                         : 192 Kbps
Channel(s)                       : 2 channels
Sampling rate                    : 44.1 KHz
Stream size                      : 39.9 MiB (9%)
Alignment                        : Split accross interleaves
Interleave, duration             : 26 ms (0.78 video frame)

